# xmcd CD database file
#
# Track frame offsets:
#	150
#	33658
#	64996
#	93173
#	141423
#	166945
#	186892
#	205583
#	224946
#
# Disc length: 3509 seconds
#
# Revision: 1
# Processed by: cddbd v1.5.2PL0 Copyright (c) Steve Scherf et al.
# Submitted via: CDex 1.51
#
DISCID=8b0db309
DTITLE=Funkadelic - Under A Groove Disc1
DYEAR=2003
DGENRE=Funk
TTITLE0=One Nation Under A Groove
TTITLE1=Groovallegiance
TTITLE2=Who Says A Funk Band Can't Play Rock?
TTITLE3=Promentalshitbackwashpsychosis Enema Squad (The DooDoo Chasers)
TTITLE4=Into You
TTITLE5=Cholly (Funk Get Ready To Roll)
TTITLE6=Lunchmeataphobia ('Think! It Ain't Illegal Yet')
TTITLE7=P.E. Squad - DooDoo Chasers ["Going All-The-Way Off" Instrumental Version]
TTITLE8=Maggot Brain [Live]
EXTD=YEAR: 2003
EXTT0=
EXTT1=
EXTT2=
EXTT3=
EXTT4=
EXTT5=
EXTT6=
EXTT7=
EXTT8=
PLAYORDER=
